<svg xmlns="http://www.w3.org/2000/svg" width="64" height="39" fill="none" viewBox="0 0 64 39">
    <path fill="#3B99FC" d="M13.107 7.643c10.434-10.095 27.352-10.095 37.786 0l1.256 1.215c.521.505.521 1.323 0 1.828l-4.296 4.156c-.261.253-.684.253-.945 0l-1.728-1.671c-7.28-7.043-19.081-7.043-26.36 0l-1.851 1.79c-.261.252-.684.252-.945 0l-4.296-4.156c-.521-.505-.521-1.323 0-1.828l1.379-1.334zm46.67 8.596l3.823 3.699c.522.505.522 1.323 0 1.828l-17.24 16.68c-.52.504-1.367.504-1.888 0L32.236 26.606c-.13-.126-.342-.126-.472 0L19.528 38.445c-.521.505-1.367.505-1.889 0L.4 21.765c-.522-.504-.522-1.323 0-1.827l3.823-3.7c.522-.504 1.368-.504 1.89 0l12.235 11.839c.13.126.342.126.473 0l12.235-11.838c.522-.505 1.367-.505 1.89 0L45.18 28.077c.13.126.342.126.472 0l12.236-11.838c.522-.505 1.367-.505 1.89 0z"/>
</svg>
